<svg width="139" height="24" viewBox="0 0 139 24" fill="none" xmlns="http://www.w3.org/2000/svg">
<path d="M2.208 21V4.2H9.288C10.28 4.2 11.168 4.44 11.952 4.92C12.752 5.384 13.384 6.024 13.848 6.84C14.328 7.64 14.568 8.544 14.568 9.552C14.568 10.592 14.328 11.528 13.848 12.36C13.384 13.176 12.752 13.832 11.952 14.328C11.168 14.808 10.28 15.048 9.288 15.048H5.664V21H2.208ZM5.64 11.904H8.928C9.52 11.904 10.016 11.688 10.416 11.256C10.832 10.808 11.04 10.256 11.04 9.6C11.04 8.944 10.832 8.408 10.416 7.992C10.016 7.56 9.52 7.344 8.928 7.344H5.64V11.904ZM21.8174 21V4.2H25.2734V17.856H32.9294V21H21.8174ZM38.3806 21L44.9566 4.2H48.0766L54.6286 21H51.0766L49.7086 17.376H43.1806L41.8126 21H38.3806ZM45.2686 11.856L44.2606 14.544H48.6526L47.6206 11.808C47.5246 11.568 47.4126 11.256 47.2846 10.872C47.1566 10.472 47.0126 10.048 46.8526 9.6C46.7086 9.152 46.5806 8.728 46.4686 8.328C46.2766 8.92 46.0766 9.528 45.8686 10.152C45.6606 10.776 45.4606 11.344 45.2686 11.856ZM66.507 21.24C64.955 21.24 63.619 20.96 62.499 20.4C61.395 19.824 60.451 19 59.667 17.928L61.851 15.456C62.635 16.544 63.411 17.288 64.179 17.688C64.947 18.072 65.795 18.264 66.723 18.264C67.475 18.264 68.107 18.104 68.619 17.784C69.147 17.464 69.411 17.032 69.411 16.488C69.411 15.832 69.075 15.32 68.403 14.952C67.747 14.568 66.899 14.272 65.859 14.064C64.051 13.68 62.707 13.064 61.827 12.216C60.947 11.368 60.507 10.24 60.507 8.832C60.507 7.856 60.787 7 61.347 6.264C61.907 5.512 62.643 4.928 63.555 4.512C64.483 4.096 65.507 3.888 66.627 3.888C68.115 3.888 69.347 4.144 70.323 4.656C71.315 5.152 72.099 5.864 72.675 6.792L70.443 8.976C69.451 7.568 68.187 6.864 66.651 6.864C65.851 6.864 65.203 7.032 64.707 7.368C64.227 7.688 63.987 8.128 63.987 8.688C63.987 9.28 64.267 9.744 64.827 10.08C65.403 10.416 66.171 10.68 67.131 10.872C68.891 11.24 70.283 11.832 71.307 12.648C72.347 13.448 72.867 14.528 72.867 15.888C72.867 17.008 72.595 17.968 72.051 18.768C71.523 19.568 70.779 20.184 69.819 20.616C68.875 21.032 67.771 21.24 66.507 21.24ZM80.2002 21V4.2H83.6562V11.04H90.8562V4.2H94.3122V21H90.8562V14.208H83.6562V21H80.2002ZM110.131 21.24C108.899 21.24 107.763 21.024 106.723 20.592C105.683 20.16 104.779 19.56 104.011 18.792C103.259 18.008 102.667 17.088 102.235 16.032C101.819 14.976 101.611 13.816 101.611 12.552C101.611 11.304 101.819 10.152 102.235 9.096C102.667 8.04 103.259 7.128 104.011 6.36C104.779 5.576 105.683 4.968 106.723 4.536C107.763 4.104 108.899 3.888 110.131 3.888C111.347 3.888 112.475 4.104 113.515 4.536C114.555 4.968 115.451 5.576 116.203 6.36C116.971 7.144 117.563 8.064 117.979 9.12C118.411 10.176 118.627 11.32 118.627 12.552C118.627 13.8 118.411 14.952 117.979 16.008C117.563 17.064 116.971 17.984 116.203 18.768C115.451 19.552 114.555 20.16 113.515 20.592C112.475 21.024 111.347 21.24 110.131 21.24ZM110.131 17.952C111.091 17.952 111.947 17.72 112.699 17.256C113.451 16.792 114.035 16.152 114.451 15.336C114.883 14.52 115.099 13.592 115.099 12.552C115.099 11.512 114.883 10.592 114.451 9.792C114.035 8.976 113.451 8.336 112.699 7.872C111.947 7.392 111.091 7.152 110.131 7.152C109.155 7.152 108.291 7.384 107.539 7.848C106.787 8.312 106.195 8.952 105.763 9.768C105.347 10.584 105.139 11.512 105.139 12.552C105.139 13.608 105.347 14.544 105.763 15.36C106.195 16.16 106.787 16.792 107.539 17.256C108.291 17.72 109.155 17.952 110.131 17.952ZM125.911 21V4.2H137.143V7.272H129.295V10.944H135.967V13.92H129.295V17.928H137.287V21H125.911Z" fill="#262B2C"/>
</svg>
